<svg xmlns="http://www.w3.org/2000/svg" viewBox="0 0 21.42 43.18"><defs><style>.cls-1{fill:red;}</style></defs><g id="Capa_2" data-name="Capa 2"><g id="Capa_1-2" data-name="Capa 1"><path class="cls-1" d="M10.85,43.16a5.41,5.41,0,1,1,0-10.81H20.2v2.14H10.85a3.27,3.27,0,1,0,0,6.53Z"/><polygon class="cls-1" points="17.36 37.49 15.85 35.98 18.39 33.44 15.86 30.91 17.37 29.39 21.42 33.44 17.36 37.49"/><path class="cls-1" d="M20.2,10.83H10.85A5.41,5.41,0,1,1,10.85,0V2.16a3.27,3.27,0,1,0,0,6.53H20.2Z"/><rect class="cls-1" width="2.14" height="43.18"/><polygon class="cls-1" points="17.37 13.79 15.86 12.28 18.39 9.75 15.85 7.21 17.36 5.69 21.42 9.75 17.37 13.79"/><polygon class="cls-1" points="17.37 25.61 15.86 24.1 18.39 21.57 15.85 19.03 17.36 17.51 21.42 21.57 17.37 25.61"/><rect class="cls-1" x="5.35" y="20.54" width="14.57" height="2.14"/></g></g></svg>