<svg xmlns="http://www.w3.org/2000/svg" viewBox="0 0 48 48"><defs><style>.cls-1{fill:#e42520;}.cls-2{fill:#fff;}.cls-3{fill:none;stroke:#fff;stroke-miterlimit:10;}</style></defs><g id="Capa_2" data-name="Capa 2"><g id="Capa_1-2" data-name="Capa 1"><path class="cls-1" d="M48,24A24,24,0,1,1,24,0,24,24,0,0,1,48,24"/><path class="cls-2" d="M14.83,20A8.4,8.4,0,0,1,17.5,25.7a8.49,8.49,0,0,1-2.05,6l2.3,2.06a11.58,11.58,0,0,0,2.82-8.32L15,19.83Z"/><path class="cls-2" d="M20.91,13.2l-1.76,2,7,7a17.41,17.41,0,0,0-5.24-9"/><path class="cls-2" d="M19.93,35.72l2.3,2.05A17.43,17.43,0,0,0,26,30.85l-2.6-2.61a14.51,14.51,0,0,1-3.44,7.48"/><path class="cls-2" d="M32.52,24.89A23.32,23.32,0,0,0,24.93,8.82l-2,2.23a20.38,20.38,0,0,1,6.6,14c0,.17,0,.33,0,.5l2.92,2.92a23.73,23.73,0,0,0,.07-3.58"/><path class="cls-2" d="M24.44,39.71l2.26,2a23.25,23.25,0,0,0,3.93-6.19l-2.32-2.32a20.56,20.56,0,0,1-3.87,6.52"/><path class="cls-2" d="M13.12,22l-1.77,2h0a3.11,3.11,0,0,1,.23,4.3l2,1.77a5.81,5.81,0,0,0-.44-8Z"/><line class="cls-3" x1="10.83" y1="12.32" x2="38.49" y2="37.69"/></g></g></svg>