<svg xmlns="http://www.w3.org/2000/svg" viewBox="0 0 46.64 52.13"><defs><style>.cls-1{fill:red;}</style></defs><g id="Capa_2" data-name="Capa 2"><g id="Capa_1-2" data-name="Capa 1"><rect class="cls-1" x="20.42" y="7.93" width="10.11" height="2.14"/><polygon class="cls-1" points="46.65 16.03 28.38 13.79 28.38 8.72 30.52 8.72 30.52 11.89 44.5 13.61 44.5 5.18 30.81 6.86 30.55 4.73 46.65 2.76 46.65 16.03"/><path class="cls-1" d="M11,7.33a3.67,3.67,0,1,1,3.66-3.67A3.68,3.68,0,0,1,11,7.33m0-5.19A1.53,1.53,0,1,0,12.5,3.66,1.53,1.53,0,0,0,11,2.14"/><path class="cls-1" d="M27.79,52.13H6.23V23a10.71,10.71,0,0,1,1.7-5.8l1.8,1.15A8.59,8.59,0,0,0,8.37,23V50H25.65V23a8.6,8.6,0,0,0-8.59-8.59h-4.5V2.56h8.85V13.17A10.75,10.75,0,0,1,27.79,23ZM14.7,12.25h2.36a10.59,10.59,0,0,1,2.2.23V4.7H14.7Z"/><polygon class="cls-1" points="30.82 6.86 30.55 4.74 30.48 4.75 30.48 6.9 30.82 6.86"/><path class="cls-1" d="M7.93,17.19l1.8,1.15c.14-.21.28-.42.43-.61l.1-.13c.15-.18.32-.34.48-.5H8a.35.35,0,0,0-.06.09"/><path class="cls-1" d="M2.22,14.29l-2-.68c1.16-3.45,3.88-5.68,6.93-5.68h6.42v2.14H7.13c-2.12,0-4,1.66-4.91,4.22"/><path class="cls-1" d="M2.23,14.29l-2-.68c-.08.26-.12.52-.19.79H2.2a.45.45,0,0,1,0-.11"/></g></g></svg>