<svg xmlns="http://www.w3.org/2000/svg" viewBox="0 0 47.61 47.64"><defs><style>.cls-1{fill:#e2231a;}</style></defs><g id="Capa_2" data-name="Capa 2"><g id="Capa_1-2" data-name="Capa 1"><path class="cls-1" d="M29.12,19.39,22,26.16l-3.44-3.54A1,1,0,1,0,17.11,24l4.12,4.23a1,1,0,0,0,1.4,0l7.87-7.43a1,1,0,0,0,.31-.69,1,1,0,0,0-.27-.71,1,1,0,0,0-1.42,0"/><path class="cls-1" d="M23.81,9A14.83,14.83,0,1,0,38.65,23.82,14.84,14.84,0,0,0,23.81,9m0,27.68A12.85,12.85,0,1,1,36.66,23.82,12.86,12.86,0,0,1,23.81,36.67"/><path class="cls-1" d="M44.22,18.36l.33-5.89a1,1,0,0,0-.54-.94L38.76,8.88,36.11,3.64a1,1,0,0,0-.94-.55l-5.9.32L24.36.16a1,1,0,0,0-1.09,0L18.35,3.41l-5.88-.33a1,1,0,0,0-1,.55L8.87,8.87,3.63,11.52a1,1,0,0,0-.55.94l.33,5.89L.16,23.27a1,1,0,0,0,0,1.09L3.4,29.28l-.33,5.89a1,1,0,0,0,.55.94l5.24,2.65L11.51,44a1,1,0,0,0,1,.54l5.88-.33,4.92,3.25a1,1,0,0,0,1.09,0l4.91-3.25,5.89.33a1,1,0,0,0,.94-.54l2.65-5.25L44,36.11a1,1,0,0,0,.54-.94l-.33-5.89,3.25-4.91a1,1,0,0,0,0-1.09ZM42.38,28.47a.93.93,0,0,0-.16.6l.31,5.57-5,2.51a.9.9,0,0,0-.43.43l-2.51,5-5.57-.31a1.06,1.06,0,0,0-.6.16l-4.65,3.07-4.64-3.07a1,1,0,0,0-.55-.17h-.05L13,42.53l-2.5-5a1,1,0,0,0-.44-.43l-5-2.5.31-5.57a1.15,1.15,0,0,0-.16-.6L2.18,23.82l3.07-4.64a1,1,0,0,0,.16-.61L5.1,13l5-2.5a1,1,0,0,0,.44-.44L13,5.11l5.57.31a1.21,1.21,0,0,0,.61-.16l4.64-3.07,4.65,3.07a1,1,0,0,0,.6.16l5.57-.31,2.51,5a1,1,0,0,0,.43.44l5,2.5-.31,5.57a1.12,1.12,0,0,0,.16.61l3.07,4.64Z"/></g></g></svg>