<?xml version="1.0" encoding="iso-8859-1"?>
<!-- Uploaded to: SVG Repo, www.svgrepo.com, Generator: SVG Repo Mixer Tools -->
<svg height="800px" width="800px" version="1.1" id="Layer_1" xmlns="http://www.w3.org/2000/svg" xmlns:xlink="http://www.w3.org/1999/xlink" 
	 viewBox="0 0 503 503" xml:space="preserve">
<g>
	<polygon style="fill:#D7E6D8;" points="430.58,461.241 72.42,461.241 72.42,141.527 251.5,10 430.58,141.527 	"/>
	<path style="fill:#4FC497;" d="M349.735,292.209c0,54.254-43.981,98.235-98.235,98.235s-98.235-43.981-98.235-98.235
		S251.5,125,251.5,125S349.735,237.955,349.735,292.209z"/>
	<g>
		<path style="fill:#333333;" d="M259.045,118.437c-1.899-2.184-4.651-3.438-7.545-3.438s-5.646,1.254-7.545,3.438
			c-1.017,1.169-25.184,29.036-49.76,64.08c-33.795,48.191-50.93,85.097-50.93,109.691c0,56.309,43.225,102.705,98.235,107.769V431
			c0,5.523,4.477,10,10,10c5.523,0,10-4.477,10-10v-31.022c55.01-5.064,98.235-51.459,98.235-107.769
			c0-24.595-17.135-61.5-50.93-109.691C284.229,147.473,260.062,119.607,259.045,118.437z M261.5,379.874V320
			c0-5.523-4.477-10-10-10c-5.523,0-10,4.477-10,10v59.874c-43.962-4.982-78.235-42.393-78.235-87.665
			c0-37.932,58.015-115.457,88.236-151.763c30.221,36.296,88.234,113.805,88.234,151.763
			C339.735,337.48,305.462,374.891,261.5,379.874z"/>
		<path style="fill:#333333;" d="M241.5,277.578V290c0,5.523,4.477,10,10,10s10-4.477,10-10v-12.422c0-5.523-4.477-10-10-10
			C245.977,267.578,241.5,272.055,241.5,277.578z"/>
		<path style="fill:#333333;" d="M251.5,479c-5.523,0-10,4.477-10,10v4c0,5.523,4.477,10,10,10s10-4.477,10-10v-4
			C261.5,483.477,257.023,479,251.5,479z"/>
		<path style="fill:#333333;" d="M257.419,1.94c-3.522-2.587-8.316-2.587-11.839,0L30.165,159.71
			c-4.486,3.221-5.512,9.469-2.291,13.955c1.953,2.721,5.02,4.169,8.131,4.169c2.02,0,4.058-0.61,5.824-1.878l20.591-14.783v300.068
			c0,5.523,4.477,10,10,10h358.16c5.523,0,10-4.477,10-10V161.173l20.591,14.783c1.766,1.268,3.804,1.878,5.824,1.878
			c3.111,0,6.178-1.449,8.131-4.169c3.221-4.486,2.195-10.734-2.291-13.955L257.419,1.94z M82.42,451.241V146.664
			c0.101-0.098,0.206-0.194,0.302-0.295L251.5,22.407l168.778,123.962c0.096,0.102,0.201,0.197,0.302,0.295v304.577H82.42z"/>
	</g>
</g>
</svg>