<svg xmlns="http://www.w3.org/2000/svg" viewBox="0 0 59.33 31.71"><defs><style>.cls-1{fill:#e2231a;}.cls-2{fill:#fff;}</style></defs><g id="Capa_2" data-name="Capa 2"><g id="Capa_1-2" data-name="Capa 1"><path class="cls-1" d="M30.39,31.71H16.31l2.18-2A4.69,4.69,0,0,0,20,26.2a4.78,4.78,0,0,0-9.55,0A4.73,4.73,0,0,0,12,29.69l2.18,2H0V0H17.45V2.34H2.33v27H8.9a7,7,0,0,1-.75-3.18,7.11,7.11,0,0,1,14.21,0,7,7,0,0,1-.75,3.18h6.45V17.14l2,2.08a4.71,4.71,0,0,0,3.43,1.47,4.78,4.78,0,1,0,0-9.55,4.7,4.7,0,0,0-3.43,1.46l-2,2.08V0H58.44V14.81l-2-2.18a4.76,4.76,0,0,0-8.27,3.24,4.79,4.79,0,0,0,4.78,4.78,4.72,4.72,0,0,0,3.49-1.55l2-2.17V31.7H40.94V29.37H56.11V22.22a7,7,0,0,1-3.18.76,7.11,7.11,0,1,1,0-14.22,7,7,0,0,1,3.18.76V2.33H30.39V9.52a7,7,0,0,1,3.1-.72,7.11,7.11,0,0,1,0,14.22,7,7,0,0,1-3.1-.72Z"/><rect class="cls-2" x="27.3" y="12.61" width="3.46" height="6.27"/><rect class="cls-2" x="55.86" y="12.61" width="3.47" height="6.27"/></g></g></svg>