<svg xmlns="http://www.w3.org/2000/svg" viewBox="0 0 42.63 43.06"><defs><style>.cls-1{fill:red;}</style></defs><g id="Capa_2" data-name="Capa 2"><g id="Capa_1-2" data-name="Capa 1"><path class="cls-1" d="M37.33,43.06a5.27,5.27,0,0,1-3.75-1.56L17.87,25.7l1.52-1.51L35.1,40a3.23,3.23,0,0,0,4.46,0,3.16,3.16,0,0,0,0-4.47L19,15l1.52-1.52L41.08,34a5.31,5.31,0,0,1-3.75,9.05"/><path class="cls-1" d="M36.34,38.73a1.38,1.38,0,1,1,1.95-1.95,1.38,1.38,0,0,1-1.95,1.95"/><path class="cls-1" d="M5.59,43a5.33,5.33,0,0,1-3.75-1.55,5.31,5.31,0,0,1,0-7.5L12.63,23.13l7.56,7.56L18.67,32.2l-6-6L3.36,35.44a3.13,3.13,0,0,0-.93,2.23,3.1,3.1,0,0,0,.93,2.23,3.15,3.15,0,0,0,4.47,0l7.63-7.63L17,33.79,9.34,41.42A5.29,5.29,0,0,1,5.59,43"/><rect class="cls-1" x="4.06" y="32.78" width="10.72" height="2.14" transform="translate(-21.19 16.59) rotate(-45.03)"/><polygon class="cls-1" points="16.42 28.47 14.91 26.96 33.07 8.78 35.77 11.45 39.57 6.26 37.02 3.71 32.09 7.3 30.83 5.57 37.24 0.91 42.39 6.05 36.03 14.71 33.08 11.8 16.42 28.47"/><polygon class="cls-1" points="32.09 7.3 30.83 5.57 30.25 5.99 31.78 7.53 32.09 7.3"/><path class="cls-1" d="M10.78,21.54A10.78,10.78,0,0,1,.53,7.42l.2-.6.63-.12c.57-.1.59-.11,4.44,4H9.71V7.59h2.14v5.25h-7l-.32-.34L2.18,10a8.64,8.64,0,0,0,14.71,6.9,8.63,8.63,0,0,0,0-12.21A8.68,8.68,0,0,0,7.18,2.92L6.28,1A10.83,10.83,0,0,1,18.4,3.15a10.77,10.77,0,0,1-7.62,18.39"/><path class="cls-1" d="M6.29,1a7.33,7.33,0,0,0-.67.39L7.17,2.91Z"/><polygon class="cls-1" points="9.71 7.59 11.85 7.59 11.85 7.58 9.71 5.43 9.71 7.59"/></g></g></svg>