<svg xmlns="http://www.w3.org/2000/svg" viewBox="0 0 48 48"><defs><style>.cls-1{fill:#e42520;}.cls-2{fill:#fff;}</style></defs><g id="Capa_2" data-name="Capa 2"><g id="Capa_1-2" data-name="Capa 1"><path class="cls-1" d="M48,24A24,24,0,1,1,24,0,24,24,0,0,1,48,24"/><path class="cls-2" d="M34.52,10.84h-.61a1.91,1.91,0,0,1,.08.54,1.79,1.79,0,0,1-1.8,1.8H32v3.34l.2,0a1.8,1.8,0,1,1,0,3.6H32v3.34l.2,0a1.8,1.8,0,1,1,0,3.6H32v3.34l.2,0a1.8,1.8,0,1,1,0,3.6H32v3.34l.2,0A1.8,1.8,0,0,1,34,39a2,2,0,0,1-.08.55h.61a19.78,19.78,0,0,0,2.32-2.16V13a18.21,18.21,0,0,0-2.32-2.16"/><path class="cls-2" d="M38.41,15V35.4a18.18,18.18,0,0,0,0-20.4"/><path class="cls-2" d="M7.89,20.5v3.81a.42.42,0,0,0,.42.43H10v.84H8.31a.42.42,0,0,0-.42.43v3.81a.42.42,0,0,0,.42.43H10a.43.43,0,0,0,.24-.08l4.13-2.89h16.4a.44.44,0,0,0,.27-.09l2.11-1.7a.42.42,0,0,0,.07-.6l-.07-.06-2.11-1.7a.44.44,0,0,0-.27-.09H14.38l-4.13-2.89a.43.43,0,0,0-.24-.08H8.31a.42.42,0,0,0-.42.43m21.66,3.39.73,2.54h-.81l-.73-2.54Zm-1.69,0,.72,2.54h-.81L27,23.89Zm-1.7,0,.73,2.54h-.82l-.72-2.54Zm-1.69,0,.72,2.54h-.81l-.73-2.54Zm-1.7,0,.73,2.54h-.82L22,23.89Zm-1.7,0,.73,2.54H21l-.73-2.54Zm-1.69,0,.72,2.54h-.81l-.72-2.54Zm-1.7,0,.73,2.54H17.6l-.73-2.54Zm-1.69,0,.72,2.54h-2V23.89Zm16.23,1.27-1.16.93-.63-2.2h.2ZM9.88,20.92l3.94,2.77v2.95L9.88,29.4H8.74v-3h1.69a.42.42,0,0,0,.43-.42v-1.7a.42.42,0,0,0-.43-.42H8.74v-3Z"/><path class="cls-2" d="M26.73,19.86c-.83-1.66-2.06-2.61-3.41-2.61-1.7,0-3.22,1.55-4,4a.58.58,0,0,0,.39.72.51.51,0,0,0,.17,0,.6.6,0,0,0,.56-.42c.58-1.95,1.7-3.21,2.85-3.21.87,0,1.73.71,2.35,1.92l-.57.26,2,1.42.25-2.42Z"/><path class="cls-2" d="M27.24,28.29a.57.57,0,0,0-.69.43c-.47,2-1.51,3.31-2.66,3.38a3,3,0,0,1-2.46-1.77L22,30l-2.05-1.3-.1,2.43.57-.3a4.12,4.12,0,0,0,3.39,2.4H24c1.7-.1,3.13-1.74,3.72-4.27a.59.59,0,0,0-.44-.7"/></g></g></svg>