<svg xmlns="http://www.w3.org/2000/svg" viewBox="0 0 35.61 60.94"><defs><style>.cls-1{fill:#e2231a;}</style></defs><g id="Capa_2" data-name="Capa 2"><g id="Capa_1-2" data-name="Capa 1"><rect class="cls-1" y="58.43" width="35.6" height="2.51"/><polygon class="cls-1" points="29.23 38.69 29.23 41.2 31.45 41.2 17.8 54.83 8.04 45.06 4.49 45.06 17.8 58.38 33.1 43.1 33.1 45.06 35.61 45.06 35.61 38.69 29.23 38.69"/><path class="cls-1" d="M31.73,21.68l0-.35c-.42-5.43-2.95-8.84-5.18-11.84C24.46,6.71,22.68,4.3,22.68.76a.76.76,0,0,0-.41-.67.75.75,0,0,0-.79.05,19.34,19.34,0,0,0-7.13,10.3,33.94,33.94,0,0,0-.78,7.7c-3.09-.67-3.79-5.3-3.8-5.35a.8.8,0,0,0-.39-.56.76.76,0,0,0-.69,0c-.16.08-4,2-4.21,9.77,0,.26,0,.52,0,.78a13.66,13.66,0,1,0,27.31,0c0-.38,0-.73-.05-1.09M18.13,34.91a4.72,4.72,0,0,1-4.56-4.85c0-.09,0-.18,0-.3a6.12,6.12,0,0,1,.48-2.41,2.77,2.77,0,0,0,2.5,1.82.76.76,0,0,0,.76-.76A15.67,15.67,0,0,1,17.61,25a7.4,7.4,0,0,1,1.54-2.91,9.62,9.62,0,0,0,1.57,2.87,8.72,8.72,0,0,1,1.94,4.74c0,.13,0,.26,0,.4a4.71,4.71,0,0,1-4.55,4.85m4.79-1a6.5,6.5,0,0,0,1.28-3.86c0-.18,0-.35,0-.66A10,10,0,0,0,22,24a6,6,0,0,1-1.5-3.55.77.77,0,0,0-.42-.68.75.75,0,0,0-.8.08,8.82,8.82,0,0,0-3.09,4.71,14,14,0,0,0-.32,2.7,3.57,3.57,0,0,1-.69-1.63.78.78,0,0,0-.4-.57.75.75,0,0,0-.7,0c-.19.09-1.87,1.06-2,4.6,0,.12,0,.24,0,.36a6.5,6.5,0,0,0,1.28,3.86A12.17,12.17,0,0,1,6,22.77c0-.23,0-.46,0-.71.13-4.55,1.58-6.8,2.53-7.8.67,2.37,2.4,5.47,5.8,5.47a.76.76,0,0,0,.76-.76,34.32,34.32,0,0,1,.73-8.16,18.14,18.14,0,0,1,5.44-8.56c.42,3.25,2.19,5.64,4,8.14,2.22,3,4.5,6.06,4.88,11.05l0,.36c0,.31.05.63.05,1a12.15,12.15,0,0,1-7.35,11.15"/></g></g></svg>