<svg xmlns="http://www.w3.org/2000/svg" viewBox="0 0 48 48"><defs><style>.cls-1{fill:#e42520;}.cls-2{fill:#fff;}</style></defs><g id="Capa_2" data-name="Capa 2"><g id="Capa_1-2" data-name="Capa 1"><path class="cls-1" d="M48,24A24,24,0,1,1,24,0,24,24,0,0,1,48,24"/><polygon class="cls-2" points="23.21 24.41 24.15 25.36 30.04 19.01 29.55 18.52 23.21 24.41"/><rect class="cls-2" x="23.37" y="13.26" width="1.25" height="2.96"/><rect class="cls-2" x="23.37" y="33.55" width="1.25" height="2.96"/><rect class="cls-2" x="32.24" y="24.35" width="2.96" height="1.25"/><rect class="cls-2" x="13.23" y="24.35" width="2.96" height="1.25"/><rect class="cls-2" x="16.71" y="16.3" width="1.25" height="2.96" transform="translate(-7.49 17.47) rotate(-45.01)"/><rect class="cls-2" x="15.64" y="31.44" width="2.96" height="1.26" transform="translate(-17.67 21.53) rotate(-45.07)"/><path class="cls-2" d="M38.34,24.89a14.34,14.34,0,0,0-6.48-12l.58-1-1.09-.62-.57,1a14.23,14.23,0,0,0-6.15-1.7V8.87h1.81V7.62H21.56V8.87h1.81v1.69A14.34,14.34,0,0,0,24,39.23h.6V37.8l-.16,0H24a13,13,0,1,1,9.73-4.42l-2-1.71.33,4.57,4.56-.33L34.8,34.32a14.33,14.33,0,0,0,3.54-9.43"/></g></g></svg>