<svg xmlns="http://www.w3.org/2000/svg" viewBox="0 0 53.97 46.8"><defs><style>.cls-1{fill:red;}</style></defs><g id="Capa_2" data-name="Capa 2"><g id="Capa_1-2" data-name="Capa 1"><path class="cls-1" d="M21.59,43.12H6.73A6.74,6.74,0,0,1,.81,33.17L.94,33l9.64-14.13,1.77,1.21L2.66,34.25A4.6,4.6,0,0,0,6.73,41H21.59Z"/><path class="cls-1" d="M47.24,43.13H27.37V41H47.24a4.58,4.58,0,0,0,4-6.76L51.14,34,44.21,23.82,46,22.61l7.2,10.62A6.86,6.86,0,0,1,54,36.4a6.74,6.74,0,0,1-6.73,6.73"/><path class="cls-1" d="M41,19.07,30.83,4.21a4.59,4.59,0,0,0-7.61-.09L15.79,15,14,13.79,21.45,2.91A6.73,6.73,0,0,1,32.61,3L42.74,17.86Z"/><polygon class="cls-1" points="30.17 46.8 25.44 42.07 30 37.51 31.51 39.02 28.46 42.07 31.69 45.29 30.17 46.8"/><polygon class="cls-1" points="11.85 24.34 11.04 20.11 6.57 20.96 6.16 18.86 12.74 17.6 13.96 23.94 11.85 24.34"/><polygon class="cls-1" points="42.93 20.09 36.35 18.83 36.75 16.73 41.23 17.58 42.04 13.35 44.14 13.75 42.93 20.09"/></g></g></svg>