<svg xmlns="http://www.w3.org/2000/svg" viewBox="0 0 32.39 53.77"><defs><style>.cls-1{fill:red;}</style></defs><g id="Capa_2" data-name="Capa 2"><g id="Capa_1-2" data-name="Capa 1"><path class="cls-1" d="M16.17,33.34A12.1,12.1,0,0,1,4.09,21.25l.08-1.42,1.09,0L4.2,19.65l.32-1.6,1.09.1-1-.29,1.56-3.33.19-.26L16.18,0,26.52,15l-.82.72.92-.54.53,1-.9.61,1-.43,1,3.76.05.63c0,.16,0,.32,0,.48A12.11,12.11,0,0,1,16.17,33.34M5.4,19l1,.32,0,.24-1.09,0,1.06.16,0,.4-1.09.11,1.06.12,0,.9a9.94,9.94,0,1,0,19.88,0v-.38l1.05-.26-1.07.05L26,19.72l1-.35L26,19.54l-.1-.52,1-.47-1,.27,1-.47-1,.28-.11-.37,1-.5-1,.33-.06-.18.94-.54-1,.37-.06-.17.92-.58-1,.41-.07-.17.89-.61-1,.4L24.58,16l.8-.74-.95.5-.15-.24-8.1-11.7L7.75,16l-1-.42.87.64-.22.39-1-.33.91.57-.34.78-1.06-.23,1,.46-1.11-.07,1,.34L6.48,19Z"/><rect class="cls-1" y="51.63" width="32.35" height="2.14"/><polygon class="cls-1" points="16.19 51.09 6.76 41.81 8.26 40.29 16.2 48.09 30.55 34.14 32.04 35.68 16.19 51.09"/><polygon class="cls-1" points="6.76 41.82 8.26 40.29 5.21 40.29 6.76 41.82"/><polygon class="cls-1" points="32.39 40.27 30.24 40.27 30.24 35.96 25.69 35.96 25.69 33.82 32.39 33.82 32.39 40.27"/></g></g></svg>