<svg xmlns="http://www.w3.org/2000/svg" viewBox="0 0 48 48"><defs><style>.cls-1{fill:#e42520;}.cls-2{fill:#fff;}.cls-3{fill:none;stroke:#fff;stroke-miterlimit:10;}</style></defs><g id="Capa_2" data-name="Capa 2"><g id="Capa_1-2" data-name="Capa 1"><path class="cls-1" d="M48,24A24,24,0,1,1,24,0,24,24,0,0,1,48,24"/><path class="cls-2" d="M34.3,10.59a1.8,1.8,0,0,1-1.8,1.8h-.21v3.34l.21,0a1.8,1.8,0,0,1,0,3.6h-.21v3.34l.21,0a1.8,1.8,0,0,1,0,3.6h-.21v3.34l.21,0a1.8,1.8,0,0,1,0,3.6h-.21v3.34l.21,0a1.81,1.81,0,0,1,1.8,1.8,2,2,0,0,1-.08.55h.61a19.78,19.78,0,0,0,2.32-2.16V12.21a17.65,17.65,0,0,0-2.33-2.16h-.6a1.91,1.91,0,0,1,.08.54"/><path class="cls-2" d="M41.85,24.41a18.11,18.11,0,0,0-3.13-10.2v20.4a18.06,18.06,0,0,0,3.13-10.2"/><path class="cls-3" d="M28.8,18.24l-.87,1.07-2.15-1.74.87-1.07-3.76-3c-3.35-2.72-8.11-2.33-9.4-2s-1.62,2-.46,2.11A8,8,0,0,1,17.45,15c.91.73,2.32,2.32,1.49,3.34l-1.7,2.1,3.76,3,2.61-3.22L25.75,22l-.86,1.07,3.22,2.61L32,20.85Z"/><path class="cls-3" d="M19.37,24.82l-2.85-2.3L12.63,25,7,32a18.27,18.27,0,0,0,4.18,5.8l6.78-8.32Z"/></g></g></svg>