<svg xmlns="http://www.w3.org/2000/svg" viewBox="0 0 48 48"><defs><style>.cls-1{fill:#e42520;}.cls-2{fill:#fff;}</style></defs><g id="Capa_2" data-name="Capa 2"><g id="Capa_1-2" data-name="Capa 1"><path class="cls-1" d="M48,24A24,24,0,1,1,24,0,24,24,0,0,1,48,24"/><path class="cls-2" d="M33.83,14.27H32.44A1.7,1.7,0,0,0,30.74,16v1.1a.47.47,0,1,0,.94,0V16a.75.75,0,0,1,.76-.76h1.39a.77.77,0,0,1,.76.76V34.83a.77.77,0,0,1-.76.76H32.59l-1.7-1.3,0,0a.43.43,0,0,0-.31-.12H18a.65.65,0,0,0-.2,0l-.1.06-1.56,1.16-.07,0H12.77a.76.76,0,0,1-.76-.76v-22a.76.76,0,0,1,.76-.76H15.3a.76.76,0,0,1,.76.76v.47a.47.47,0,0,0,.93,0v-.47A1.69,1.69,0,0,0,15.3,11H12.77a1.69,1.69,0,0,0-1.69,1.69v22a1.69,1.69,0,0,0,1.69,1.69h3.29a1.09,1.09,0,0,0,.62-.21l1.45-1.08H30.45l1.62,1.24a.88.88,0,0,0,.47.16h1.29a1.69,1.69,0,0,0,1.68-1.69V16a1.69,1.69,0,0,0-1.68-1.69"/><path class="cls-2" d="M35,13.15H31.74a1.29,1.29,0,0,0-.69.21l-1.52,1.09H17.27l-1.42-1.09-.24-.18h0a.71.71,0,0,0-.44-.14H13.94a1.69,1.69,0,0,0-1.69,1.69V33.61a1.69,1.69,0,0,0,1.69,1.69h1.34A1.69,1.69,0,0,0,17,33.61v-1.1a.47.47,0,0,0-.46-.47.46.46,0,0,0-.46.47v1.1a.77.77,0,0,1-.77.76H13.94a.76.76,0,0,1-.76-.76V14.73a.76.76,0,0,1,.76-.76h1.19l1.7,1.31a.45.45,0,0,0,.29.1H29.64a.51.51,0,0,0,.31-.09l1.6-1.15a.53.53,0,0,1,.19-.06H35a.77.77,0,0,1,.76.77v22a.76.76,0,0,1-.76.76H32.42a.76.76,0,0,1-.76-.76v-.37a.47.47,0,0,0-.93,0v.37a1.69,1.69,0,0,0,1.69,1.69H35a1.69,1.69,0,0,0,1.69-1.69v-22A1.7,1.7,0,0,0,35,13.15"/></g></g></svg>